<?xml version="1.0" encoding="UTF-8" standalone="no"?>
<svg
   xmlns:dc="http://purl.org/dc/elements/1.1/"
   xmlns:cc="http://creativecommons.org/ns#"
   xmlns:rdf="http://www.w3.org/1999/02/22-rdf-syntax-ns#"
   xmlns:svg="http://www.w3.org/2000/svg"
   xmlns="http://www.w3.org/2000/svg"
   xmlns:sodipodi="http://sodipodi.sourceforge.net/DTD/sodipodi-0.dtd"
   xmlns:inkscape="http://www.inkscape.org/namespaces/inkscape"
   viewBox="0 0 300 50"
   version="1.1"
   id="svg26"
   sodipodi:docname="logo.svg"
   inkscape:version="0.92.5 (2060ec1f9f, 2020-04-08)">
  <metadata
     id="metadata32">
    <rdf:RDF>
      <cc:Work
         rdf:about="">
        <dc:format>image/svg+xml</dc:format>
        <dc:type
           rdf:resource="http://purl.org/dc/dcmitype/StillImage" />
      </cc:Work>
    </rdf:RDF>
  </metadata>
  <defs
     id="defs30" />
  <sodipodi:namedview
     pagecolor="#ffffff"
     bordercolor="#666666"
     borderopacity="1"
     objecttolerance="10"
     gridtolerance="10"
     guidetolerance="10"
     inkscape:pageopacity="0"
     inkscape:pageshadow="2"
     inkscape:window-width="1860"
     inkscape:window-height="1136"
     id="namedview28"
     showgrid="false"
     inkscape:zoom="8"
     inkscape:cx="59.081562"
     inkscape:cy="35.269428"
     inkscape:window-x="60"
     inkscape:window-y="27"
     inkscape:window-maximized="1"
     inkscape:current-layer="svg26" />
  <style
     type="text/css"
     id="style2">
                .st0 {
                    fill: #BADEFD;
                }

                .st1 {
                    fill: #2B2F42;
                }

                .st2 {
                    fill: #9EBCE1;
                }

                .st3 {
                    fill: #778DBA;
                }

                .st4 {
                    fill: #4E5C92;
                }
            </style>
  <path
     class="st0"
     d="M74 47.8H29.8c-0.9 0-1.6-0.7-1.6-1.6 0-0.9 0.7-1.6 1.6-1.6H74C79.5 44.5 84 40 84 34.5c0-5.3-4.2-9.7-9.5-10 -0.9-0.1-1.6-0.8-1.5-1.7 0.1-0.9 0.8-1.6 1.7-1.5 7 0.4 12.5 6.2 12.5 13.3C87.3 41.8 81.3 47.8 74 47.8z"
     id="path4"
     inkscape:export-xdpi="84.271011"
     inkscape:export-ydpi="84.271011" />
  <path
     class="st2"
     d="M74.7 24.4c-0.6 0-1.2-0.4-1.5-1 -2.4-5.4-7.8-8.9-13.7-8.9 -1.6 0-3.3 0.3-4.8 0.8 -0.9 0.3-1.8-0.2-2.1-1 -0.3-0.8 0.2-1.8 1-2.1 1.9-0.6 3.9-1 5.8-1 7.2 0 13.7 4.2 16.7 10.8 0.4 0.8 0 1.8-0.8 2.1C75.1 24.4 74.9 24.4 74.7 24.4z"
     id="path8"
     inkscape:export-xdpi="84.271011"
     inkscape:export-ydpi="84.271011" />
  <path
     class="st3"
     d="M15.9 18.9c-0.2 0-0.4 0-0.5-0.1 -0.8-0.3-1.3-1.2-1-2.1C17.6 7.7 26.2 1.6 35.9 1.6 44 1.6 51.5 5.9 55.6 13c0.4 0.8 0.2 1.8-0.6 2.2 -0.8 0.4-1.8 0.2-2.2-0.6 -3.5-6-10-9.8-16.9-9.8 -8.2 0-15.6 5.2-18.4 13C17.2 18.5 16.6 18.9 15.9 18.9z"
     id="path10"
     inkscape:export-xdpi="84.271011"
     inkscape:export-ydpi="84.271011" />
  <path
     class="st4"
     d="M16 47.8c-8.9 0-16.1-7.2-16.1-16.1 0-8.8 7.2-16 16-16.1 0 0 0 0 0 0 0.9 0 1.6 0.7 1.6 1.6 0 0.9-0.7 1.6-1.6 1.6 -7 0-12.8 5.8-12.8 12.8 0 7.1 5.7 12.8 12.8 12.8 2.8 0 7.4-1.1 13.2-6.5l0.1-0.1c0.7-0.6 1.7-0.6 2.3 0.1 0.6 0.7 0.6 1.7-0.1 2.3l-0.1 0.1C26.2 45.3 21 47.8 16 47.8z"
     id="path12"
     inkscape:export-xdpi="84.271011"
     inkscape:export-ydpi="84.271011" />
  <text
     xml:space="preserve"
     style="font-style:normal;font-weight:normal;font-size:40px;line-height:1.25;font-family:sans-serif;letter-spacing:0px;word-spacing:0px;fill:#464646;fill-opacity:1;stroke:none;"
     x="102"
     y="38.5"
     id="text841"
     inkscape:export-xdpi="84.271011"
     inkscape:export-ydpi="84.271011"><tspan
       sodipodi:role="line"
       id="tspan839"
       x="102"
       y="38.5"
       style="font-style:normal;font-variant:normal;font-weight:normal;font-stretch:normal;font-family:'Khmer OS System';-inkscape-font-specification:'Khmer OS System';fill:#464646;fill-opacity:1;">OGN logbook</tspan></text>
  <text
     xml:space="preserve"
     style="font-style:normal;font-weight:normal;font-size:40px;line-height:1.25;font-family:sans-serif;letter-spacing:0px;word-spacing:0px;fill:#000000;fill-opacity:1;stroke:none"
     x="112"
     y="43"
     id="text845"
     inkscape:export-xdpi="84.271011"
     inkscape:export-ydpi="84.271011"><tspan
       sodipodi:role="line"
       id="tspan843"
       x="112"
       y="78.390625" /></text>
  <path
     inkscape:connector-curvature="0"
     style="fill:#464646;fill-opacity:1;stroke-width:0.62375659"
     d="M 66.847752,47.850114 58.798977,37.539208 48.716565,25.210606 c 0.187339,-0.126629 1.055598,-0.872944 3.11156,-2.700174 2.318729,-2.060648 2.497883,-3.85257 2.497883,-3.85257 0,0 -1.792327,-0.179525 -4.27167,1.683612 -2.199306,1.651951 -3.103495,2.35434 -3.264381,2.513308 L 36.706754,10.525213 28.199098,0.5911968 c 0,0 -0.441984,-0.40645631 -0.803642,-0.11067717 C 27.033802,0.7762795 26.540812,1.1794496 26.540812,1.1794496 l 6.628947,9.6477574 5.921918,8.113209 c 0,0 4.333502,5.969918 4.589778,6.283288 0.192299,0.235148 0.09881,0.429239 -0.08363,0.613087 l -0.203407,0.180848 v 0 c -0.0053,0.0043 -0.01056,0.0088 -0.01559,0.01364 L 33.858031,34.454021 30.90081,31.72672 c 0,0 -0.566942,-0.358248 -0.928113,-0.06288 -0.361656,0.295764 -0.592941,0.48491 -0.592941,0.48491 l 2.563207,3.872234 0.644015,-0.05692 -0.412383,0.660369 -0.09826,0.22863 0.243589,-0.05097 0.728678,-0.273606 -0.182712,0.619999 3.286913,3.281187 c 0,0 0.231279,-0.189148 0.592936,-0.484907 0.361175,-0.295371 0.121385,-0.923585 0.121385,-0.923585 l -2.084985,-3.438199 10.144704,-7.659839 c 0.0052,-0.0036 0.01055,-0.0078 0.01635,-0.01246 v 0 l 0.217631,-0.16347 c 0.216003,-0.1428 0.424787,-0.195915 0.617093,0.03924 0.255882,0.312887 5.247812,5.745946 5.247812,5.745946 l 6.776164,7.413792 8.139874,8.411307 c 0,0 0.492989,-0.403172 0.854647,-0.698935 0.360686,-0.294972 0.05132,-0.808258 0.05132,-0.808258 z M 49.01316,24.020452 c 0,0 -0.526756,0.280095 -0.976181,-0.220198 -0.401538,-0.540255 -0.02247,-1.000945 -0.02247,-1.000945 0,0 1.40933,-1.253282 2.697878,-2.106425 0.83789,-0.553889 1.416048,-0.882476 1.766805,-0.525504 0.280257,0.414624 -0.156938,0.915586 -0.865693,1.627366 -1.091901,1.093608 -2.600344,2.225693 -2.600344,2.225693 z"
     id="path820"
     inkscape:export-xdpi="84.271011"
     inkscape:export-ydpi="84.271011" />
  <path
     style="fill:#9ebce1;fill-opacity:1;fill-rule:evenodd;stroke:none;stroke-width:0;stroke-linecap:round;stroke-linejoin:bevel;stroke-miterlimit:4;stroke-dasharray:none;stroke-opacity:1"
     d="m 48.336092,23.999854 c -0.317633,-0.171229 -0.495389,-0.493161 -0.451789,-0.818227 0.0347,-0.258727 0.09727,-0.332869 0.725049,-0.859145 1.620859,-1.358798 3.027319,-2.277316 3.487086,-2.277316 0.474218,0 0.577346,0.409642 0.230823,0.916871 -0.329764,0.482698 -1.466776,1.555614 -2.702277,2.549943 -0.644136,0.518399 -0.660047,0.527945 -0.90598,0.543506 -0.171984,0.01088 -0.291825,-0.0065 -0.382912,-0.05563 z"
     id="path821"
     inkscape:connector-curvature="0"
     inkscape:export-xdpi="84.271011"
     inkscape:export-ydpi="84.271011" />
  <path
     style="fill:#badefd;fill-opacity:1;fill-rule:evenodd;stroke:none;stroke-width:0;stroke-linecap:round;stroke-linejoin:bevel;stroke-miterlimit:4;stroke-dasharray:none;stroke-opacity:1"
     d="m 48.306525,23.934908 c -0.07565,-0.05051 -0.206206,-0.222171 -0.290134,-0.381468 -0.211738,-0.401883 0.01707,-0.716977 1.212876,-1.670293 1.409431,-1.123616 2.388517,-1.727575 2.800598,-1.727575 0.907504,0 0.406987,0.883971 -1.360542,2.402875 -1.739474,1.494795 -1.977718,1.633586 -2.362798,1.376461 z"
     id="path823"
     inkscape:connector-curvature="0"
     inkscape:export-xdpi="84.271011"
     inkscape:export-ydpi="84.271011" />
</svg>
